<svg width="506" height="506" viewBox="0 0 506 506" fill="none" xmlns="http://www.w3.org/2000/svg">
<g clip-path="url(#clip0_514_157)">
<path d="M205.357 173.115H204.607C200.798 188.442 196.989 207.907 192.76 222.813L177.464 277.429H234.39L218.344 222.813C213.785 207.517 209.196 188.442 205.357 173.115Z" fill="white"/>
<path d="M474.988 0H30.982C13.8564 0 0 13.8564 0 30.982V475.018C0 492.114 13.8564 506 30.982 506H475.018C492.114 506 506 492.114 506 475.018V30.982C506 13.8864 492.114 0 474.988 0ZM262.673 387.051L242.788 320.978H169.097L150.741 387.051H90.3968L169.097 129.627H245.457L325.326 387.051H262.673ZM413.684 387.051H355.589V200.289H413.684V387.051ZM384.291 177.374C365.966 177.374 353.729 164.358 354.089 148.312C353.729 131.486 365.966 118.949 384.711 118.949C403.396 118.949 415.243 131.516 415.603 148.312C415.603 164.358 403.396 177.374 384.291 177.374Z" fill="white"/>
</g>
<defs>
<clipPath id="clip0_514_157">
<rect width="506" height="506" fill="white"/>
</clipPath>
</defs>
</svg>
