<svg width="512" height="512" viewBox="0 0 512 512" fill="none" xmlns="http://www.w3.org/2000/svg">
<g clip-path="url(#clip0_514_146)">
<path d="M0 0V512H512.163V0H0ZM274.373 397.714C274.373 447.554 244.924 471.851 202.293 471.851C163.789 471.851 141.439 451.92 130.099 427.863L169.288 404.149C176.845 417.554 182.584 428.891 199.081 428.891C212.799 428.891 224.071 422.709 224.071 398.651V237.714H274.373V397.714ZM387.952 470.709C343.264 470.709 314.386 450.549 300.29 422.709L339.537 400C349.826 416.846 363.259 428.069 386.981 428.069C406.918 428.069 418.499 419.246 418.499 405.497C418.499 389.006 406.575 383.166 384.568 373.497L372.542 368.331C337.811 353.566 314.786 335.006 314.786 295.817C314.786 259.737 342.281 233.383 385.254 233.383C415.858 233.383 437.842 242.891 453.676 270.731L416.133 294.857C407.879 280.08 398.984 274.286 385.197 274.286C371.101 274.286 362.161 283.223 362.161 294.857C362.161 309.291 371.101 315.131 391.725 324.069L403.752 329.223C444.668 346.754 467.703 364.651 467.703 404.834C467.715 448.149 433.681 470.709 387.952 470.709Z" fill="white"/>
</g>
<defs>
<clipPath id="clip0_514_146">
<rect width="512" height="512" fill="white"/>
</clipPath>
</defs>
</svg>
