<svg width="512" height="500" viewBox="0 0 512 500" fill="none" xmlns="http://www.w3.org/2000/svg">
<g clip-path="url(#clip0_514_148)">
<path d="M224.896 185.893C228.373 191.355 230.187 197.904 229.973 204.773C229.973 214.16 227.84 221.413 223.36 226.747C213.483 238.523 195.947 241.893 181.333 241.893H170.027C167.467 241.893 164.693 241.68 161.707 241.467V169.787C163.2 169.573 166.187 169.36 170.453 169.573C174.507 169.36 179.413 169.36 184.96 169.36C199.659 169.36 216.448 172.624 224.896 185.893Z" fill="white"/>
<path d="M421.333 0.399902H90.6667C40.5333 0.399902 0 40.9332 0 91.0666V408.933C0 459.067 40.5333 499.6 90.6667 499.6H421.333C471.467 499.6 512 459.067 512 408.933V91.0666C512 40.9332 471.467 0.399902 421.333 0.399902ZM263.68 248.933C255.147 260.88 243.2 269.84 229.333 274.96C214.827 280.293 198.827 282.213 181.333 282.213C176.213 282.213 172.8 282.213 170.667 282C168.533 281.787 165.547 281.787 161.493 281.787V350.267C161.707 351.76 160.64 353.04 159.147 353.253H117.76C116.053 353.253 115.2 352.4 115.2 350.48V130.96C115.2 129.467 115.84 128.613 117.333 128.613C120.96 128.613 124.373 128.613 129.28 128.4C134.4 128.187 139.733 128.187 145.493 127.973C151.253 127.76 157.44 127.76 164.053 127.547C170.667 127.333 177.067 127.333 183.467 127.333C200.96 127.333 215.467 129.467 227.413 133.947C238.08 137.573 247.893 143.547 256 151.44C262.827 158.267 268.16 166.587 271.573 175.76C274.773 184.72 276.48 193.893 276.48 203.493C276.48 221.84 272.213 236.987 263.68 248.933ZM414.933 331.92C408.96 340.453 400.64 347.067 391.04 350.907C380.587 355.387 367.787 357.733 352.427 357.733C342.613 357.733 333.013 356.88 323.413 354.96C315.947 353.68 308.48 351.333 301.653 348.133C300.16 347.28 299.093 345.787 299.307 344.08V306.96C299.307 306.32 299.52 305.467 300.16 305.04C300.8 304.613 301.44 304.827 302.08 305.253C310.4 310.16 319.147 313.573 328.533 315.707C336.64 317.84 345.173 318.907 353.707 318.907C361.813 318.907 367.573 317.84 371.413 315.92C374.827 314.427 377.173 310.8 377.173 306.96C377.173 303.973 375.467 301.2 372.053 298.427C368.64 295.653 361.6 292.453 351.147 288.4C340.267 284.56 330.24 279.44 320.853 273.04C314.24 268.347 308.693 262.16 304.64 254.907C301.227 248.08 299.52 240.613 299.733 233.147C299.733 223.973 302.293 215.227 306.987 207.333C312.32 198.8 320.213 191.973 329.387 187.707C339.413 182.587 352 180.24 367.147 180.24C375.893 180.24 384.853 180.88 393.6 182.16C400 183.013 406.187 184.72 411.947 187.067C412.8 187.28 413.653 188.133 414.08 188.987C414.293 189.84 414.507 190.693 414.507 191.547V226.32C414.507 227.173 414.08 228.027 413.44 228.453C411.52 228.88 410.453 228.88 409.6 228.453C403.2 225.04 396.373 222.693 389.12 221.2C381.227 219.493 373.333 218.427 365.227 218.427C360.96 218.213 356.48 218.853 352.427 219.92C349.653 220.56 347.307 222.053 345.813 224.187C344.747 225.893 344.107 228.027 344.107 229.947C344.107 231.867 344.96 233.787 346.24 235.493C348.16 237.84 350.72 239.76 353.493 241.253C358.4 243.813 363.52 246.16 368.64 248.293C380.16 252.133 391.253 257.467 401.493 263.867C408.533 268.347 414.293 274.32 418.347 281.573C421.76 288.4 423.467 295.867 423.253 303.547C423.467 313.573 420.48 323.6 414.933 331.92Z" fill="white"/>
</g>
<defs>
<clipPath id="clip0_514_148">
<rect width="512" height="500" fill="white"/>
</clipPath>
</defs>
</svg>
