<svg width="519" height="512" viewBox="0 0 519 512" fill="none" xmlns="http://www.w3.org/2000/svg">
<g clip-path="url(#clip0_514_155)">
<path fill-rule="evenodd" clip-rule="evenodd" d="M330.67 382.345C338.789 455.026 400.504 511.538 475.425 511.538C499.37 511.538 518.794 492.136 518.794 468.217V401.233C518.794 385.424 505.999 372.644 490.172 372.644C469.823 372.644 453.431 355.962 453.791 335.636L456.155 213.834C458.364 96.6513 363.865 0.410645 246.499 0.410645H140.849C138.897 0.410645 137.252 2.05315 137.252 4.00363V227.641C137.252 293.444 190.643 346.723 256.468 346.723H354.205C364.019 346.723 371.984 354.73 371.984 364.534C371.984 374.337 364.019 382.345 354.205 382.345H330.67ZM98.0448 0.615958H20.5031C9.14673 0.615958 -0.0513916 9.80373 -0.0513916 21.1473V305.198C-0.0513916 390.609 69.2685 459.85 154.775 459.85H233.704C258.678 459.85 278.924 439.627 278.924 414.682V385.938C278.924 383.936 277.331 382.345 275.327 382.345H256.468C170.962 382.345 101.642 313.103 101.642 227.641V4.20894C101.642 2.20713 100.049 0.615958 98.0448 0.615958ZM378.716 248.942C378.716 264.033 366.486 276.3 351.327 276.3C336.168 276.3 323.938 264.033 323.938 248.942C323.938 233.852 336.168 221.533 351.327 221.533C366.486 221.533 378.716 233.801 378.716 248.942Z" fill="white"/>
</g>
<defs>
<clipPath id="clip0_514_155">
<rect width="519" height="512" fill="white"/>
</clipPath>
</defs>
</svg>
