<svg width="583" height="513" viewBox="0 0 583 513" fill="none" xmlns="http://www.w3.org/2000/svg">
<g clip-path="url(#clip0_514_112)">
<path d="M148.327 182.808C82.6753 199.737 39.8535 228.74 39.8535 261.851C39.8535 314.306 149.522 357.077 285.083 357.077C303.506 357.077 316.452 356.106 333.631 354.662" stroke="white" stroke-width="50" stroke-linecap="round" stroke-linejoin="round"/>
<path d="M234.286 354.799C224.019 339.959 214.248 326.588 204.951 309.981C136.56 187.976 118.237 66.7176 164.428 39.254C193.018 21.8995 240.178 45.5535 288.084 95.3763" stroke="white" stroke-width="50" stroke-linecap="round" stroke-linejoin="round"/>
<path d="M149.609 341.288C132.103 408.305 135.644 458.867 163.574 475.795C208.038 502.722 297.913 426.979 364.148 306.159C373.125 289.454 381.18 273.024 388.287 256.844" stroke="white" stroke-width="50" stroke-linecap="round" stroke-linejoin="round"/>
<path d="M288.084 419.474C336.012 469.272 382.971 492.926 411.833 475.571C457.822 448.133 439.7 326.875 371.238 204.845C361.692 187.989 351.922 174.867 341.904 160.027" stroke="white" stroke-width="50" stroke-linecap="round" stroke-linejoin="round"/>
<path d="M429.403 332.019C494.432 314.915 537.453 285.962 537.453 252.95C537.453 200.42 427.71 157.749 292.348 157.749C273.751 157.749 260.829 158.471 243.676 159.915" stroke="white" stroke-width="50" stroke-linecap="round" stroke-linejoin="round"/>
<path d="M189.02 256.843C196.094 240.472 204.087 224.397 213.049 207.777C278.756 87.6177 368.27 12.0589 412.778 39.0726C440.332 55.9157 444.106 106.197 426.679 172.851" stroke="white" stroke-width="50" stroke-linecap="round" stroke-linejoin="round"/>
<path d="M294.916 257.788H294.675C294.434 260.978 291.785 263.678 288.412 263.678C286.8 263.596 285.278 262.891 284.159 261.705C283.04 260.519 282.407 258.943 282.391 257.297C282.391 253.862 285.04 251.163 288.172 251.163H287.931C291.062 250.917 293.953 253.862 293.953 257.052" stroke="white" stroke-width="50" stroke-linecap="round" stroke-linejoin="round"/>
</g>
<defs>
<clipPath id="clip0_514_112">
<rect width="583" height="513" fill="white"/>
</clipPath>
</defs>
</svg>
