<svg width="512" height="512" viewBox="0 0 512 512" fill="none" xmlns="http://www.w3.org/2000/svg">
<g clip-path="url(#clip0_514_121)">
<path d="M256.002 85.3333C220.982 85.3333 190.875 94.7851 167.242 115.042C143.779 135.153 128.43 164.43 119.915 200.922C118.057 208.886 122.109 217.049 129.577 220.383C137.044 223.718 145.827 221.286 150.517 214.587C161.324 199.147 172.115 189.87 182.484 185.109C192.525 180.499 203.349 179.564 215.746 182.885C228.257 186.237 237.942 196.051 253.147 212.588L253.639 213.122C265.1 225.589 279.082 240.797 298.206 252.596C318.049 264.84 342.743 273.066 375.47 273.066C410.487 273.066 440.596 263.614 464.23 243.358C487.69 223.247 503.04 193.969 511.556 157.478C513.413 149.514 509.362 141.351 501.893 138.016C494.428 134.682 485.642 137.113 480.952 143.813C470.146 159.252 459.356 168.529 448.986 173.29C438.944 177.901 428.121 178.835 415.724 175.514C403.214 172.163 393.527 162.348 378.324 145.811L377.832 145.277C366.37 132.81 352.389 117.602 333.265 105.803C313.421 93.5597 288.728 85.3333 256.002 85.3333Z" fill="white"/>
<path d="M136.535 238.933C101.516 238.933 71.408 248.385 47.7751 268.642C24.3122 288.753 8.96314 318.03 0.448393 354.523C-1.4099 362.486 2.64247 370.647 10.1098 373.982C17.5772 377.317 26.3604 374.887 31.0502 368.186C41.8577 352.748 52.6486 343.47 63.017 338.709C73.0583 334.099 83.8816 333.164 96.2796 336.485C108.791 339.836 118.476 349.652 133.681 366.189L134.172 366.722C145.633 379.187 159.616 394.397 178.739 406.197C198.583 418.441 223.276 426.667 256.002 426.667C291.021 426.667 321.129 417.215 344.764 396.957C368.224 376.846 383.573 347.57 392.09 311.078C393.946 303.113 389.895 294.951 382.426 291.616C374.962 288.281 366.176 290.713 361.486 297.412C350.679 312.852 339.889 322.129 329.52 326.89C319.479 331.5 308.655 332.435 296.258 329.114C283.747 325.763 274.062 315.948 258.857 299.411L258.365 298.877C246.904 286.41 232.922 271.202 213.798 259.403C193.955 247.16 169.261 238.933 136.535 238.933Z" fill="white"/>
</g>
<defs>
<clipPath id="clip0_514_121">
<rect width="512" height="512" fill="white"/>
</clipPath>
</defs>
</svg>
